<?xml version="1.0" encoding="UTF-8" standalone="no"?>
<!-- Created with Inkscape (http://www.inkscape.org/) -->

<svg
   xmlns:osb="http://www.openswatchbook.org/uri/2009/osb"
   xmlns:dc="http://purl.org/dc/elements/1.1/"
   xmlns:cc="http://creativecommons.org/ns#"
   xmlns:rdf="http://www.w3.org/1999/02/22-rdf-syntax-ns#"
   xmlns:svg="http://www.w3.org/2000/svg"
   xmlns="http://www.w3.org/2000/svg"
   xmlns:xlink="http://www.w3.org/1999/xlink"
   xmlns:sodipodi="http://sodipodi.sourceforge.net/DTD/sodipodi-0.dtd"
   xmlns:inkscape="http://www.inkscape.org/namespaces/inkscape"
   width="2.6805556in"
   height="0.56944442in"
   viewBox="0 0 241.25 51.249997"
   id="svg2"
   version="1.1"
   inkscape:version="0.91 r13725"
   sodipodi:docname="logo.svg">
  <defs
     id="defs4">
    <linearGradient
       inkscape:collect="always"
       id="linearGradient9899">
      <stop
         style="stop-color:#dedede;stop-opacity:1"
         offset="0"
         id="stop9901" />
      <stop
         style="stop-color:#7d7d7d;stop-opacity:1"
         offset="1"
         id="stop9903" />
    </linearGradient>
    <linearGradient
       id="linearGradient9871"
       osb:paint="solid">
      <stop
         style="stop-color:#000000;stop-opacity:1;"
         offset="0"
         id="stop9873" />
    </linearGradient>
    <linearGradient
       inkscape:collect="always"
       xlink:href="#linearGradient9899"
       id="linearGradient9905"
       x1="25.217627"
       y1="1029.1104"
       x2="25.201818"
       y2="1062.9496"
       gradientUnits="userSpaceOnUse" />
    <linearGradient
       inkscape:collect="always"
       xlink:href="#linearGradient9899"
       id="linearGradient9928"
       x1="86.977402"
       y1="1016.4494"
       x2="87.231369"
       y2="1062.6639"
       gradientUnits="userSpaceOnUse" />
    <linearGradient
       inkscape:collect="always"
       xlink:href="#linearGradient9899"
       id="linearGradient9985"
       x1="132.20972"
       y1="1.5631181"
       x2="132.01569"
       y2="49.473511"
       gradientUnits="userSpaceOnUse" />
    <linearGradient
       inkscape:collect="always"
       xlink:href="#linearGradient9899"
       id="linearGradient10027"
       x1="194.80943"
       y1="1028.3619"
       x2="194.54659"
       y2="1063.7804"
       gradientUnits="userSpaceOnUse" />
    <linearGradient
       inkscape:collect="always"
       xlink:href="#linearGradient9899"
       id="linearGradient10042"
       x1="225.3931"
       y1="14.525204"
       x2="225.70586"
       y2="49.703773"
       gradientUnits="userSpaceOnUse" />
    <linearGradient
       inkscape:collect="always"
       xlink:href="#linearGradient9899"
       id="linearGradient14265"
       gradientUnits="userSpaceOnUse"
       gradientTransform="translate(102.17419,1013.7683)"
       x1="61.607662"
       y1="14.532008"
       x2="61.699242"
       y2="49.066597" />
  </defs>
  <sodipodi:namedview
     id="base"
     pagecolor="#ffffff"
     bordercolor="#666666"
     borderopacity="1.0"
     inkscape:pageopacity="0.0"
     inkscape:pageshadow="2"
     inkscape:zoom="2.8"
     inkscape:cx="126.47888"
     inkscape:cy="23.730508"
     inkscape:document-units="px"
     inkscape:current-layer="layer1"
     showgrid="false"
     units="in"
     fit-margin-top="0"
     fit-margin-left="0"
     fit-margin-right="0"
     fit-margin-bottom="0"
     showguides="true"
     inkscape:guide-bbox="true"
     inkscape:window-width="1280"
     inkscape:window-height="961"
     inkscape:window-x="-8"
     inkscape:window-y="-8"
     inkscape:window-maximized="1" />
  <metadata
     id="metadata7">
    <rdf:RDF>
      <cc:Work
         rdf:about="">
        <dc:format>image/svg+xml</dc:format>
        <dc:type
           rdf:resource="http://purl.org/dc/dcmitype/StillImage" />
        <dc:title></dc:title>
      </cc:Work>
    </rdf:RDF>
  </metadata>
  <g
     inkscape:label="Layer 1"
     inkscape:groupmode="layer"
     id="layer1"
     transform="translate(-0.34076822,-1014.1103)">
    <path
       style="fill:url(#linearGradient9905);fill-opacity:1;fill-rule:evenodd;stroke:#000000;stroke-width:1px;stroke-linecap:butt;stroke-linejoin:miter;stroke-opacity:1"
       d="m 10.340768,1029.5567 -8.1249998,0.089 9.2857138,32.8572 6.517857,-0.089 6.875,-20.0893 5.892858,20 7.5,0 9.285714,-32.5893 -7.5,0.089 -5.223214,19.6429 -5.580357,-19.6429 -8.125001,0 -5.535714,19.6428 z"
       id="path9891"
       inkscape:connector-curvature="0"
       sodipodi:nodetypes="cccccccccccccc" />
    <path
       style="fill:url(#linearGradient9985);fill-rule:evenodd;stroke:#000000;stroke-width:1px;stroke-linecap:butt;stroke-linejoin:miter;stroke-opacity:1;fill-opacity:1"
       d="M 122.10156 2.0058594 C 120.32308 2.0178594 118.15041 2.1130438 118.125 4.1523438 C 118.125 7.6878437 118.0625 42.032594 118.0625 44.621094 C 118.0625 47.209594 119.51427 49.167369 124.3125 49.230469 C 129.11072 49.293469 135.29788 50.177159 141.61133 45.568359 C 148.24046 40.517559 153.98582 16.526213 134.60352 14.695312 C 128.85828 14.632312 126.14258 17.347656 126.14258 17.347656 C 126.14258 17.347656 126.0968 4.7775906 126.01562 4.0878906 C 126.01562 4.0878906 126.89886 1.9735594 122.10156 2.0058594 z M 133.08789 22.144531 C 138.77 22.018231 140.72592 29.532363 138.26367 36.414062 C 135.80142 43.295662 126.14258 41.654297 126.14258 41.654297 L 126.14258 30.037109 C 126.14258 26.880409 127.40578 22.270731 133.08789 22.144531 z "
       transform="translate(0.34076822,1014.1103)"
       id="path9964" />
    <path
       style="fill:url(#linearGradient10042);fill-rule:evenodd;stroke:#000000;stroke-width:1px;stroke-linecap:butt;stroke-linejoin:miter;stroke-opacity:1;fill-opacity:1"
       d="M 224.82227 14.464844 C 219.19727 14.464844 209.75612 18.838678 209.73242 32.142578 C 209.69861 51.124078 227.58929 50.267578 233.125 49.017578 C 238.66071 47.767578 237.85742 45.8482 237.23242 43.75 C 236.60743 41.6518 236.71691 40.589856 233.75 41.160156 C 221.24733 43.563156 219.52615 39.908434 218.57227 34.552734 C 241.55427 34.318734 239.46343 35.624678 239.55273 30.892578 C 239.79365 18.124178 231.07227 14.375844 224.82227 14.464844 z M 224.64258 21.607422 C 231.80944 21.363822 231.33984 28.035156 231.33984 28.035156 L 218.48242 28.035156 C 218.48242 28.035156 218.75545 21.807522 224.64258 21.607422 z "
       id="path10029"
       transform="translate(0.34076822,1014.1103)" />
    <use
       xlink:href="#symbol14093"
       id="use14096" />
    <g
       id="symbol14093">
      <path
         style="fill:url(#linearGradient10027);fill-rule:evenodd;stroke:#000000;stroke-width:1px;stroke-linecap:butt;stroke-linejoin:miter;stroke-opacity:1;fill-opacity:1"
         d="m 183.74659,1038.5912 c -0.4419,10.6066 14.75006,9.2381 14.77348,14.0159 0.0237,4.8318 -5.84193,3.9532 -11.11167,2.8411 -3.38123,-0.7136 -3.58322,-0.7578 -3.66181,3.5986 -0.0498,2.7602 -0.59133,3.0171 3.21987,3.6619 7.50142,1.269 19.69552,1.1987 20.13991,-10.291 0.44171,-11.4203 -15.02602,-9.407 -15.08915,-14.079 -0.0598,-4.4248 7.85842,-2.3681 9.34391,-1.894 2.96732,0.947 3.49337,1.4927 4.41941,-2.5885 0.63908,-2.8165 0.94702,-3.0936 -3.21986,-4.4195 -4.16688,-1.3258 -18.43529,-2.0834 -18.81409,9.1545 z"
         id="path10019"
         inkscape:connector-curvature="0"
         sodipodi:nodetypes="csssssssscc" />
    </g>
    <use
       id="use14168"
       xlink:href="#symbol14133"
       transform="translate(0.03818904,-0.02946793)"
       x="0"
       y="0"
       width="100%"
       height="100%" />
    <use
       id="use14200"
       xlink:href="#symbol14133"
       transform="translate(17.895332,0.14910347)"
       x="0"
       y="0"
       width="100%"
       height="100%" />
    <use
       id="use14300"
       xlink:href="#symbol13976"
       transform="translate(-0.2327934,0.1893781)"
       x="0"
       y="0"
       width="100%"
       height="100%" />
    <use
       id="use14332"
       xlink:href="#symbol13976"
       transform="translate(-102.14159,0.0079915)"
       x="0"
       y="0"
       width="100%"
       height="100%" />
    <g
       id="symbol14133">
      <path
         sodipodi:nodetypes="csssssssccc"
         inkscape:connector-curvature="0"
         id="path9936"
         d="m 84.805054,1016.0746 c -2.098215,-0.045 -2.321429,0.3571 -2.321429,3.3036 0,2.68 -0.08798,31.9646 -0.04464,34.1964 0.08929,4.5982 2.903264,9.3944 8.029913,9.596 4.431366,0.1742 6.925444,0.6718 6.925444,-2.1853 0,-2.8571 0.580356,-4.6428 -1.741072,-4.6428 -2.321429,0 -4.6875,0.5357 -4.776785,-2.6786 -0.08929,-3.2143 0.178571,-32.5893 0.178571,-34.5536 0,-1.9643 0.08929,-3.0357 -2.1875,-3.0804 -1.354633,0.013 -2.707868,0.044 -4.0625,0.045 z"
         style="fill:url(#linearGradient9928);fill-opacity:1;fill-rule:evenodd;stroke:#000000;stroke-width:1px;stroke-linecap:butt;stroke-linejoin:miter;stroke-opacity:1" />
    </g>
    <g
       id="symbol13976">
      <path
         style="fill:url(#linearGradient14265);fill-opacity:1;fill-rule:evenodd;stroke:#000000;stroke-width:1px;stroke-linecap:butt;stroke-linejoin:miter;stroke-opacity:1"
         d="m 156.77213,1029.1695 c -3.02184,0.3399 -2.60349,3.3514 -2.18778,4.9551 1.0295,3.9714 2.23734,1.8065 7.27652,1.3973 5.82233,-0.4729 9.02447,1.0185 8.00775,5.1796 -11.83122,-0.063 -17.30885,2.7023 -18.12517,10.2608 -1.04518,9.6776 6.95885,11.11 8.55603,11.2887 3.09605,0.3464 14.59811,-0.4852 17.67773,-1.161 0.0286,-3.8666 0.0896,-22.2319 0.0896,-22.2319 -0.60605,-10.4182 -10.89986,-10.8577 -21.29464,-9.6886 z m 12.72433,18.4386 0.26758,7.7676 c 0,0 -10.52558,2.9005 -9.82227,-3.75 0.56008,-4.5369 5.51753,-4.0245 9.55469,-4.0176 z"
         id="path9907-3"
         inkscape:connector-curvature="0"
         sodipodi:nodetypes="csscssccsccccc" />
    </g>
  </g>
</svg>
