<?xml version="1.0" encoding="UTF-8"?>
<svg width="399px" height="243px" viewBox="0 0 399 243" version="1.1" xmlns="http://www.w3.org/2000/svg" xmlns:xlink="http://www.w3.org/1999/xlink">
    <g id="wb-logo" stroke="none" stroke-width="1" fill="none" fill-rule="evenodd">
        <polygon id="w" fill="#d4d4d4" points="0.395355225 74.7689819 12.2241211 242.803558 54.2111511 242.803558 107.225037 129.5 114.706848 242.803558 152.678406 242.803558 234.649597 74.7689819 191.144226 74.7689819 145.146545 190.305176 134.64624 74.7689819 98.6807251 74.7689819 42.8337402 190.305176 36.408905 74.7689819"></polygon>
        <path d="M316.344543,0.863555908 L300.918213,92.6848755 C319.188456,75.0340093 339.572154,69.0620448 362.069305,74.7689819 C395.815033,83.3293877 411.189941,126.481125 387.170441,177.412239 C363.15094,228.343353 336.856232,242.803558 284.680145,240.728714 C232.504059,238.65387 239.178719,197.751007 252.629761,129.5 C261.597122,83.9993286 269.450312,41.1205139 276.189331,0.863555908 L276.189331,0.863555908 L316.344543,0.863555908 Z M333.649353,102.54303 C313.034775,102.54303 296.198883,127.182999 287.95697,148.32605 C279.715057,169.469101 279.715057,203.421997 293.223022,209.722229 C306.730988,216.022461 334.30246,199.768715 348.351685,170.853035 C362.400909,141.937355 354.263931,102.54303 333.649353,102.54303 Z" id="b" fill="#d4d4d4"></path>
    </g>
</svg>
